<svg width="221" height="28" viewBox="0 0 221 28" fill="none" xmlns="http://www.w3.org/2000/svg">
<path d="M5.32 21L0.26 9.7H1.8L6.48 20.26H5.62L10.34 9.7H11.8L6.74 21H5.32ZM18.6606 21.12C17.514 21.12 16.4806 20.8733 15.5606 20.38C14.6406 19.8733 13.914 19.1867 13.3806 18.32C12.8606 17.44 12.6006 16.4467 12.6006 15.34C12.6006 14.2333 12.8606 13.2467 13.3806 12.38C13.914 11.5133 14.6406 10.8267 15.5606 10.32C16.4806 9.81333 17.514 9.56 18.6606 9.56C19.8206 9.56 20.854 9.81333 21.7606 10.32C22.6806 10.8267 23.4006 11.5133 23.9206 12.38C24.454 13.2467 24.7206 14.2333 24.7206 15.34C24.7206 16.4467 24.454 17.44 23.9206 18.32C23.4006 19.1867 22.6806 19.8733 21.7606 20.38C20.854 20.8733 19.8206 21.12 18.6606 21.12ZM18.6606 19.88C19.554 19.88 20.3473 19.6867 21.0406 19.3C21.734 18.9 22.2806 18.36 22.6806 17.68C23.0806 16.9867 23.2806 16.2067 23.2806 15.34C23.2806 14.4733 23.074 13.7 22.6606 13.02C22.2606 12.34 21.714 11.8067 21.0206 11.42C20.3406 11.02 19.554 10.82 18.6606 10.82C17.7806 10.82 16.9873 11.02 16.2806 11.42C15.5873 11.8067 15.0406 12.34 14.6406 13.02C14.2406 13.7 14.0406 14.4733 14.0406 15.34C14.0406 16.2067 14.2406 16.9867 14.6406 17.68C15.0406 18.36 15.5873 18.9 16.2806 19.3C16.9873 19.6867 17.7806 19.88 18.6606 19.88ZM27.7836 21V9.7H29.2236V21H27.7836ZM33.4281 21V9.7H37.8081C38.7948 9.7 39.6348 9.85333 40.3281 10.16C41.0348 10.4667 41.5815 10.9133 41.9681 11.5C42.3548 12.0733 42.5481 12.7733 42.5481 13.6C42.5481 14.4 42.3548 15.0933 41.9681 15.68C41.5815 16.2667 41.0348 16.7133 40.3281 17.02C39.6348 17.3267 38.7948 17.48 37.8081 17.48H34.2281L34.8681 16.84V21H33.4281ZM41.1681 21L38.2081 16.9H39.7881L42.7281 21H41.1681ZM34.8681 16.98L34.3081 16.3H37.7481C38.8415 16.3 39.6748 16.0667 40.2481 15.6C40.8215 15.12 41.1081 14.4533 41.1081 13.6C41.1081 12.7333 40.8215 12.0667 40.2481 11.6C39.6748 11.1333 38.8415 10.9 37.7481 10.9H34.3081L34.8681 10.22V16.98ZM53.103 21V10.9H49.123V9.7H58.523V10.9H54.543V21H53.103ZM65.4184 21.12C64.2718 21.12 63.2384 20.8733 62.3184 20.38C61.3984 19.8733 60.6718 19.1867 60.1384 18.32C59.6184 17.44 59.3584 16.4467 59.3584 15.34C59.3584 14.2333 59.6184 13.2467 60.1384 12.38C60.6718 11.5133 61.3984 10.8267 62.3184 10.32C63.2384 9.81333 64.2718 9.56 65.4184 9.56C66.5784 9.56 67.6118 9.81333 68.5184 10.32C69.4384 10.8267 70.1584 11.5133 70.6784 12.38C71.2118 13.2467 71.4784 14.2333 71.4784 15.34C71.4784 16.4467 71.2118 17.44 70.6784 18.32C70.1584 19.1867 69.4384 19.8733 68.5184 20.38C67.6118 20.8733 66.5784 21.12 65.4184 21.12ZM65.4184 19.88C66.3118 19.88 67.1051 19.6867 67.7984 19.3C68.4918 18.9 69.0384 18.36 69.4384 17.68C69.8384 16.9867 70.0384 16.2067 70.0384 15.34C70.0384 14.4733 69.8318 13.7 69.4184 13.02C69.0184 12.34 68.4718 11.8067 67.7784 11.42C67.0984 11.02 66.3118 10.82 65.4184 10.82C64.5384 10.82 63.7451 11.02 63.0384 11.42C62.3451 11.8067 61.7984 12.34 61.3984 13.02C60.9984 13.7 60.7984 14.4733 60.7984 15.34C60.7984 16.2067 60.9984 16.9867 61.3984 17.68C61.7984 18.36 62.3451 18.9 63.0384 19.3C63.7451 19.6867 64.5384 19.88 65.4184 19.88ZM79.2214 21.12C78.2214 21.12 77.3614 20.9333 76.6414 20.56C75.9347 20.1733 75.3881 19.6133 75.0014 18.88C74.6147 18.1467 74.4214 17.2533 74.4214 16.2V9.7H75.8614V16.16C75.8614 17.4 76.1547 18.3333 76.7414 18.96C77.3281 19.5733 78.1547 19.88 79.2214 19.88C80.3014 19.88 81.1347 19.5733 81.7214 18.96C82.3081 18.3333 82.6014 17.4 82.6014 16.16V9.7H84.0014V16.2C84.0014 17.2533 83.8081 18.1467 83.4214 18.88C83.0481 19.6133 82.5014 20.1733 81.7814 20.56C81.0747 20.9333 80.2214 21.12 79.2214 21.12ZM90.0366 21V10.9H86.0566V9.7H95.4566V10.9H91.4766V21H90.0366ZM98.8273 14.68H104.907V15.86H98.8273V14.68ZM99.0673 19.8H105.847V21H97.6273V9.7H105.607V10.9H99.0673V19.8ZM116.455 17.92C116.455 18.5467 116.282 19.1 115.935 19.58C115.602 20.06 115.109 20.44 114.455 20.72C113.815 20.9867 113.022 21.12 112.075 21.12C111.209 21.12 110.375 20.9867 109.575 20.72C108.789 20.4533 108.169 20.1133 107.715 19.7L108.315 18.58C108.729 18.9667 109.275 19.2867 109.955 19.54C110.649 19.78 111.369 19.9 112.115 19.9C113.155 19.9 113.895 19.72 114.335 19.36C114.789 18.9867 115.015 18.5467 115.015 18.04C115.015 17.6133 114.889 17.28 114.635 17.04C114.382 16.7867 114.049 16.5867 113.635 16.44C113.222 16.28 112.769 16.1467 112.275 16.04C111.782 15.9333 111.289 15.8133 110.795 15.68C110.302 15.5467 109.842 15.3667 109.415 15.14C109.002 14.9133 108.669 14.6133 108.415 14.24C108.175 13.8667 108.055 13.3733 108.055 12.76C108.055 12.1467 108.222 11.6 108.555 11.12C108.889 10.64 109.375 10.26 110.015 9.98C110.655 9.7 111.442 9.56 112.375 9.56C113.042 9.56 113.695 9.64667 114.335 9.82C114.989 9.98 115.549 10.2267 116.015 10.56L115.495 11.72C115.015 11.3867 114.502 11.1533 113.955 11.02C113.409 10.8733 112.869 10.8 112.335 10.8C111.349 10.8 110.622 10.9867 110.155 11.36C109.702 11.72 109.475 12.1667 109.475 12.7C109.475 13.1267 109.602 13.4667 109.855 13.72C110.109 13.96 110.442 14.16 110.855 14.32C111.269 14.4667 111.722 14.5933 112.215 14.7C112.722 14.8067 113.222 14.9267 113.715 15.06C114.209 15.1933 114.662 15.3733 115.075 15.6C115.489 15.8133 115.822 16.1067 116.075 16.48C116.329 16.8533 116.455 17.3333 116.455 17.92ZM124.659 21V9.7H126.099V19.8H132.399V21H124.659ZM135.859 14.68H141.939V15.86H135.859V14.68ZM136.099 19.8H142.879V21H134.659V9.7H142.639V10.9H136.099V19.8ZM153.487 17.92C153.487 18.5467 153.313 19.1 152.967 19.58C152.633 20.06 152.14 20.44 151.487 20.72C150.847 20.9867 150.053 21.12 149.107 21.12C148.24 21.12 147.407 20.9867 146.607 20.72C145.82 20.4533 145.2 20.1133 144.747 19.7L145.347 18.58C145.76 18.9667 146.307 19.2867 146.987 19.54C147.68 19.78 148.4 19.9 149.147 19.9C150.187 19.9 150.927 19.72 151.367 19.36C151.82 18.9867 152.047 18.5467 152.047 18.04C152.047 17.6133 151.92 17.28 151.667 17.04C151.413 16.7867 151.08 16.5867 150.667 16.44C150.253 16.28 149.8 16.1467 149.307 16.04C148.813 15.9333 148.32 15.8133 147.827 15.68C147.333 15.5467 146.873 15.3667 146.447 15.14C146.033 14.9133 145.7 14.6133 145.447 14.24C145.207 13.8667 145.087 13.3733 145.087 12.76C145.087 12.1467 145.253 11.6 145.587 11.12C145.92 10.64 146.407 10.26 147.047 9.98C147.687 9.7 148.473 9.56 149.407 9.56C150.073 9.56 150.727 9.64667 151.367 9.82C152.02 9.98 152.58 10.2267 153.047 10.56L152.527 11.72C152.047 11.3867 151.533 11.1533 150.987 11.02C150.44 10.8733 149.9 10.8 149.367 10.8C148.38 10.8 147.653 10.9867 147.187 11.36C146.733 11.72 146.507 12.1667 146.507 12.7C146.507 13.1267 146.633 13.4667 146.887 13.72C147.14 13.96 147.473 14.16 147.887 14.32C148.3 14.4667 148.753 14.5933 149.247 14.7C149.753 14.8067 150.253 14.9267 150.747 15.06C151.24 15.1933 151.693 15.3733 152.107 15.6C152.52 15.8133 152.853 16.1067 153.107 16.48C153.36 16.8533 153.487 17.3333 153.487 17.92ZM169.19 17.92C169.19 18.5467 169.017 19.1 168.67 19.58C168.337 20.06 167.843 20.44 167.19 20.72C166.55 20.9867 165.757 21.12 164.81 21.12C163.943 21.12 163.11 20.9867 162.31 20.72C161.523 20.4533 160.903 20.1133 160.45 19.7L161.05 18.58C161.463 18.9667 162.01 19.2867 162.69 19.54C163.383 19.78 164.103 19.9 164.85 19.9C165.89 19.9 166.63 19.72 167.07 19.36C167.523 18.9867 167.75 18.5467 167.75 18.04C167.75 17.6133 167.623 17.28 167.37 17.04C167.117 16.7867 166.783 16.5867 166.37 16.44C165.957 16.28 165.503 16.1467 165.01 16.04C164.517 15.9333 164.023 15.8133 163.53 15.68C163.037 15.5467 162.577 15.3667 162.15 15.14C161.737 14.9133 161.403 14.6133 161.15 14.24C160.91 13.8667 160.79 13.3733 160.79 12.76C160.79 12.1467 160.957 11.6 161.29 11.12C161.623 10.64 162.11 10.26 162.75 9.98C163.39 9.7 164.177 9.56 165.11 9.56C165.777 9.56 166.43 9.64667 167.07 9.82C167.723 9.98 168.283 10.2267 168.75 10.56L168.23 11.72C167.75 11.3867 167.237 11.1533 166.69 11.02C166.143 10.8733 165.603 10.8 165.07 10.8C164.083 10.8 163.357 10.9867 162.89 11.36C162.437 11.72 162.21 12.1667 162.21 12.7C162.21 13.1267 162.337 13.4667 162.59 13.72C162.843 13.96 163.177 14.16 163.59 14.32C164.003 14.4667 164.457 14.5933 164.95 14.7C165.457 14.8067 165.957 14.9267 166.45 15.06C166.943 15.1933 167.397 15.3733 167.81 15.6C168.223 15.8133 168.557 16.1067 168.81 16.48C169.063 16.8533 169.19 17.3333 169.19 17.92ZM173.359 14.68H179.439V15.86H173.359V14.68ZM173.599 19.8H180.379V21H172.159V9.7H180.139V10.9H173.599V19.8ZM174.859 8.06L177.599 5.58H179.499L176.259 8.06H174.859ZM183.487 21V9.7H187.867C188.853 9.7 189.693 9.85333 190.387 10.16C191.093 10.4667 191.64 10.9133 192.027 11.5C192.413 12.0733 192.607 12.7733 192.607 13.6C192.607 14.4 192.413 15.0933 192.027 15.68C191.64 16.2667 191.093 16.7133 190.387 17.02C189.693 17.3267 188.853 17.48 187.867 17.48H184.287L184.927 16.84V21H183.487ZM191.227 21L188.267 16.9H189.847L192.787 21H191.227ZM184.927 16.98L184.367 16.3H187.807C188.9 16.3 189.733 16.0667 190.307 15.6C190.88 15.12 191.167 14.4533 191.167 13.6C191.167 12.7333 190.88 12.0667 190.307 11.6C189.733 11.1333 188.9 10.9 187.807 10.9H184.367L184.927 10.22V16.98ZM195.967 21V9.7H197.407V21H195.967ZM202.812 14.68H208.892V15.86H202.812V14.68ZM203.052 19.8H209.832V21H201.612V9.7H209.592V10.9H203.052V19.8ZM220.44 17.92C220.44 18.5467 220.267 19.1 219.92 19.58C219.587 20.06 219.093 20.44 218.44 20.72C217.8 20.9867 217.007 21.12 216.06 21.12C215.193 21.12 214.36 20.9867 213.56 20.72C212.773 20.4533 212.153 20.1133 211.7 19.7L212.3 18.58C212.713 18.9667 213.26 19.2867 213.94 19.54C214.633 19.78 215.353 19.9 216.1 19.9C217.14 19.9 217.88 19.72 218.32 19.36C218.773 18.9867 219 18.5467 219 18.04C219 17.6133 218.873 17.28 218.62 17.04C218.367 16.7867 218.033 16.5867 217.62 16.44C217.207 16.28 216.753 16.1467 216.26 16.04C215.767 15.9333 215.273 15.8133 214.78 15.68C214.287 15.5467 213.827 15.3667 213.4 15.14C212.987 14.9133 212.653 14.6133 212.4 14.24C212.16 13.8667 212.04 13.3733 212.04 12.76C212.04 12.1467 212.207 11.6 212.54 11.12C212.873 10.64 213.36 10.26 214 9.98C214.64 9.7 215.427 9.56 216.36 9.56C217.027 9.56 217.68 9.64667 218.32 9.82C218.973 9.98 219.533 10.2267 220 10.56L219.48 11.72C219 11.3867 218.487 11.1533 217.94 11.02C217.393 10.8733 216.853 10.8 216.32 10.8C215.333 10.8 214.607 10.9867 214.14 11.36C213.687 11.72 213.46 12.1667 213.46 12.7C213.46 13.1267 213.587 13.4667 213.84 13.72C214.093 13.96 214.427 14.16 214.84 14.32C215.253 14.4667 215.707 14.5933 216.2 14.7C216.707 14.8067 217.207 14.9267 217.7 15.06C218.193 15.1933 218.647 15.3733 219.06 15.6C219.473 15.8133 219.807 16.1067 220.06 16.48C220.313 16.8533 220.44 17.3333 220.44 17.92Z" fill="#D16127"/>
</svg>
