<svg width="192" height="28" viewBox="0 0 192 28" fill="none" xmlns="http://www.w3.org/2000/svg">
<path d="M5.32 21L0.26 9.7H1.8L6.48 20.26H5.62L10.34 9.7H11.8L6.74 21H5.32ZM18.6606 21.12C17.514 21.12 16.4806 20.8733 15.5606 20.38C14.6406 19.8733 13.914 19.1867 13.3806 18.32C12.8606 17.44 12.6006 16.4467 12.6006 15.34C12.6006 14.2333 12.8606 13.2467 13.3806 12.38C13.914 11.5133 14.6406 10.8267 15.5606 10.32C16.4806 9.81333 17.514 9.56 18.6606 9.56C19.8206 9.56 20.854 9.81333 21.7606 10.32C22.6806 10.8267 23.4006 11.5133 23.9206 12.38C24.454 13.2467 24.7206 14.2333 24.7206 15.34C24.7206 16.4467 24.454 17.44 23.9206 18.32C23.4006 19.1867 22.6806 19.8733 21.7606 20.38C20.854 20.8733 19.8206 21.12 18.6606 21.12ZM18.6606 19.88C19.554 19.88 20.3473 19.6867 21.0406 19.3C21.734 18.9 22.2806 18.36 22.6806 17.68C23.0806 16.9867 23.2806 16.2067 23.2806 15.34C23.2806 14.4733 23.074 13.7 22.6606 13.02C22.2606 12.34 21.714 11.8067 21.0206 11.42C20.3406 11.02 19.554 10.82 18.6606 10.82C17.7806 10.82 16.9873 11.02 16.2806 11.42C15.5873 11.8067 15.0406 12.34 14.6406 13.02C14.2406 13.7 14.0406 14.4733 14.0406 15.34C14.0406 16.2067 14.2406 16.9867 14.6406 17.68C15.0406 18.36 15.5873 18.9 16.2806 19.3C16.9873 19.6867 17.7806 19.88 18.6606 19.88ZM27.7836 21V9.7H29.2236V21H27.7836ZM33.4281 21V9.7H37.8081C38.7948 9.7 39.6348 9.85333 40.3281 10.16C41.0348 10.4667 41.5815 10.9133 41.9681 11.5C42.3548 12.0733 42.5481 12.7733 42.5481 13.6C42.5481 14.4 42.3548 15.0933 41.9681 15.68C41.5815 16.2667 41.0348 16.7133 40.3281 17.02C39.6348 17.3267 38.7948 17.48 37.8081 17.48H34.2281L34.8681 16.84V21H33.4281ZM41.1681 21L38.2081 16.9H39.7881L42.7281 21H41.1681ZM34.8681 16.98L34.3081 16.3H37.7481C38.8415 16.3 39.6748 16.0667 40.2481 15.6C40.8215 15.12 41.1081 14.4533 41.1081 13.6C41.1081 12.7333 40.8215 12.0667 40.2481 11.6C39.6748 11.1333 38.8415 10.9 37.7481 10.9H34.3081L34.8681 10.22V16.98ZM53.103 21V10.9H49.123V9.7H58.523V10.9H54.543V21H53.103ZM65.4184 21.12C64.2718 21.12 63.2384 20.8733 62.3184 20.38C61.3984 19.8733 60.6718 19.1867 60.1384 18.32C59.6184 17.44 59.3584 16.4467 59.3584 15.34C59.3584 14.2333 59.6184 13.2467 60.1384 12.38C60.6718 11.5133 61.3984 10.8267 62.3184 10.32C63.2384 9.81333 64.2718 9.56 65.4184 9.56C66.5784 9.56 67.6118 9.81333 68.5184 10.32C69.4384 10.8267 70.1584 11.5133 70.6784 12.38C71.2118 13.2467 71.4784 14.2333 71.4784 15.34C71.4784 16.4467 71.2118 17.44 70.6784 18.32C70.1584 19.1867 69.4384 19.8733 68.5184 20.38C67.6118 20.8733 66.5784 21.12 65.4184 21.12ZM65.4184 19.88C66.3118 19.88 67.1051 19.6867 67.7984 19.3C68.4918 18.9 69.0384 18.36 69.4384 17.68C69.8384 16.9867 70.0384 16.2067 70.0384 15.34C70.0384 14.4733 69.8318 13.7 69.4184 13.02C69.0184 12.34 68.4718 11.8067 67.7784 11.42C67.0984 11.02 66.3118 10.82 65.4184 10.82C64.5384 10.82 63.7451 11.02 63.0384 11.42C62.3451 11.8067 61.7984 12.34 61.3984 13.02C60.9984 13.7 60.7984 14.4733 60.7984 15.34C60.7984 16.2067 60.9984 16.9867 61.3984 17.68C61.7984 18.36 62.3451 18.9 63.0384 19.3C63.7451 19.6867 64.5384 19.88 65.4184 19.88ZM79.2214 21.12C78.2214 21.12 77.3614 20.9333 76.6414 20.56C75.9347 20.1733 75.3881 19.6133 75.0014 18.88C74.6147 18.1467 74.4214 17.2533 74.4214 16.2V9.7H75.8614V16.16C75.8614 17.4 76.1547 18.3333 76.7414 18.96C77.3281 19.5733 78.1547 19.88 79.2214 19.88C80.3014 19.88 81.1347 19.5733 81.7214 18.96C82.3081 18.3333 82.6014 17.4 82.6014 16.16V9.7H84.0014V16.2C84.0014 17.2533 83.8081 18.1467 83.4214 18.88C83.0481 19.6133 82.5014 20.1733 81.7814 20.56C81.0747 20.9333 80.2214 21.12 79.2214 21.12ZM95.5766 17.92C95.5766 18.5467 95.4032 19.1 95.0566 19.58C94.7232 20.06 94.2299 20.44 93.5766 20.72C92.9366 20.9867 92.1432 21.12 91.1966 21.12C90.3299 21.12 89.4966 20.9867 88.6966 20.72C87.9099 20.4533 87.2899 20.1133 86.8366 19.7L87.4366 18.58C87.8499 18.9667 88.3966 19.2867 89.0766 19.54C89.7699 19.78 90.4899 19.9 91.2366 19.9C92.2766 19.9 93.0166 19.72 93.4566 19.36C93.9099 18.9867 94.1366 18.5467 94.1366 18.04C94.1366 17.6133 94.0099 17.28 93.7566 17.04C93.5032 16.7867 93.1699 16.5867 92.7566 16.44C92.3432 16.28 91.8899 16.1467 91.3966 16.04C90.9032 15.9333 90.4099 15.8133 89.9166 15.68C89.4232 15.5467 88.9632 15.3667 88.5366 15.14C88.1232 14.9133 87.7899 14.6133 87.5366 14.24C87.2966 13.8667 87.1766 13.3733 87.1766 12.76C87.1766 12.1467 87.3432 11.6 87.6766 11.12C88.0099 10.64 88.4966 10.26 89.1366 9.98C89.7766 9.7 90.5632 9.56 91.4966 9.56C92.1632 9.56 92.8166 9.64667 93.4566 9.82C94.1099 9.98 94.6699 10.2267 95.1366 10.56L94.6166 11.72C94.1366 11.3867 93.6232 11.1533 93.0766 11.02C92.5299 10.8733 91.9899 10.8 91.4566 10.8C90.4699 10.8 89.7432 10.9867 89.2766 11.36C88.8232 11.72 88.5966 12.1667 88.5966 12.7C88.5966 13.1267 88.7232 13.4667 88.9766 13.72C89.2299 13.96 89.5632 14.16 89.9766 14.32C90.3899 14.4667 90.8432 14.5933 91.3366 14.7C91.8432 14.8067 92.3432 14.9267 92.8366 15.06C93.3299 15.1933 93.7832 15.3733 94.1966 15.6C94.6099 15.8133 94.9432 16.1067 95.1966 16.48C95.4499 16.8533 95.5766 17.3333 95.5766 17.92ZM103.78 21V9.7H105.22V19.8H111.52V21H103.78ZM114.98 14.68H121.06V15.86H114.98V14.68ZM115.22 19.8H122V21H113.78V9.7H121.76V10.9H115.22V19.8ZM132.608 17.92C132.608 18.5467 132.434 19.1 132.088 19.58C131.754 20.06 131.261 20.44 130.608 20.72C129.968 20.9867 129.174 21.12 128.228 21.12C127.361 21.12 126.528 20.9867 125.728 20.72C124.941 20.4533 124.321 20.1133 123.868 19.7L124.468 18.58C124.881 18.9667 125.428 19.2867 126.108 19.54C126.801 19.78 127.521 19.9 128.268 19.9C129.308 19.9 130.048 19.72 130.488 19.36C130.941 18.9867 131.168 18.5467 131.168 18.04C131.168 17.6133 131.041 17.28 130.788 17.04C130.534 16.7867 130.201 16.5867 129.788 16.44C129.374 16.28 128.921 16.1467 128.428 16.04C127.934 15.9333 127.441 15.8133 126.948 15.68C126.454 15.5467 125.994 15.3667 125.568 15.14C125.154 14.9133 124.821 14.6133 124.568 14.24C124.328 13.8667 124.208 13.3733 124.208 12.76C124.208 12.1467 124.374 11.6 124.708 11.12C125.041 10.64 125.528 10.26 126.168 9.98C126.808 9.7 127.594 9.56 128.528 9.56C129.194 9.56 129.848 9.64667 130.488 9.82C131.141 9.98 131.701 10.2267 132.168 10.56L131.648 11.72C131.168 11.3867 130.654 11.1533 130.108 11.02C129.561 10.8733 129.021 10.8 128.488 10.8C127.501 10.8 126.774 10.9867 126.308 11.36C125.854 11.72 125.628 12.1667 125.628 12.7C125.628 13.1267 125.754 13.4667 126.008 13.72C126.261 13.96 126.594 14.16 127.008 14.32C127.421 14.4667 127.874 14.5933 128.368 14.7C128.874 14.8067 129.374 14.9267 129.868 15.06C130.361 15.1933 130.814 15.3733 131.228 15.6C131.641 15.8133 131.974 16.1067 132.228 16.48C132.481 16.8533 132.608 17.3333 132.608 17.92ZM142.011 15.1H148.091V16.32H142.011V15.1ZM142.251 21H140.811V9.7H148.791V10.9H142.251V21ZM151.592 21V9.7H153.032V21H151.592ZM157.237 21V9.7H158.677V19.8H164.977V21H157.237ZM167.237 21V9.7H168.477L173.577 18.28H172.997L178.057 9.7H179.297V21H177.917V11.9H178.157L173.597 19.58H172.937L168.297 11.9H168.617V21H167.237ZM191.006 17.92C191.006 18.5467 190.833 19.1 190.486 19.58C190.153 20.06 189.66 20.44 189.006 20.72C188.366 20.9867 187.573 21.12 186.626 21.12C185.76 21.12 184.926 20.9867 184.126 20.72C183.34 20.4533 182.72 20.1133 182.266 19.7L182.866 18.58C183.28 18.9667 183.826 19.2867 184.506 19.54C185.2 19.78 185.92 19.9 186.666 19.9C187.706 19.9 188.446 19.72 188.886 19.36C189.34 18.9867 189.566 18.5467 189.566 18.04C189.566 17.6133 189.44 17.28 189.186 17.04C188.933 16.7867 188.6 16.5867 188.186 16.44C187.773 16.28 187.32 16.1467 186.826 16.04C186.333 15.9333 185.84 15.8133 185.346 15.68C184.853 15.5467 184.393 15.3667 183.966 15.14C183.553 14.9133 183.22 14.6133 182.966 14.24C182.726 13.8667 182.606 13.3733 182.606 12.76C182.606 12.1467 182.773 11.6 183.106 11.12C183.44 10.64 183.926 10.26 184.566 9.98C185.206 9.7 185.993 9.56 186.926 9.56C187.593 9.56 188.246 9.64667 188.886 9.82C189.54 9.98 190.1 10.2267 190.566 10.56L190.046 11.72C189.566 11.3867 189.053 11.1533 188.506 11.02C187.96 10.8733 187.42 10.8 186.886 10.8C185.9 10.8 185.173 10.9867 184.706 11.36C184.253 11.72 184.026 12.1667 184.026 12.7C184.026 13.1267 184.153 13.4667 184.406 13.72C184.66 13.96 184.993 14.16 185.406 14.32C185.82 14.4667 186.273 14.5933 186.766 14.7C187.273 14.8067 187.773 14.9267 188.266 15.06C188.76 15.1933 189.213 15.3733 189.626 15.6C190.04 15.8133 190.373 16.1067 190.626 16.48C190.88 16.8533 191.006 17.3333 191.006 17.92Z" fill="#F5F0E1"/>
</svg>
